<?xml version="1.0" standalone="no"?>
<!DOCTYPE svg PUBLIC "-//W3C//DTD SVG 20010904//EN"
 "http://www.w3.org/TR/2001/REC-SVG-20010904/DTD/svg10.dtd">
<svg version="1.0" xmlns="http://www.w3.org/2000/svg"
 width="190.000000pt" height="195.000000pt" viewBox="0 0 190.000000 195.000000"
 preserveAspectRatio="xMidYMid meet">

<g transform="translate(0.000000,195.000000) scale(0.100000,-0.100000)"
fill="#000000" stroke="none">
<path d="M0 975 l0 -975 950 0 950 0 0 975 0 975 -950 0 -950 0 0 -975z m1057
855 c469 -53 807 -477 754 -942 -47 -406 -353 -712 -759 -759 -400 -45 -784
203 -906 586 -146 453 103 938 553 1080 127 40 228 50 358 35z"/>
<path d="M644 1497 c-247 -94 -379 -301 -361 -562 16 -226 152 -406 358 -475
80 -27 222 -35 304 -18 l60 13 3 107 3 107 -48 -21 c-75 -34 -199 -32 -278 5
-78 36 -137 95 -172 171 -24 53 -28 73 -28 156 0 82 4 103 26 151 37 78 90
133 165 170 89 44 166 49 262 17 l72 -24 0 102 c0 88 -2 103 -17 109 -10 4
-79 9 -153 11 -123 4 -141 2 -196 -19z"/>
<path d="M667 1033 c-14 -38 -37 -98 -51 -135 l-26 -68 26 0 c19 0 29 7 37 30
11 29 14 30 73 30 61 0 63 -1 69 -30 5 -25 12 -30 36 -30 l28 0 -28 78 c-75
200 -71 192 -106 192 -31 0 -34 -3 -58 -67z m99 -85 c5 -15 -1 -18 -41 -18
-34 0 -46 4 -42 13 2 6 13 35 23 64 l18 52 18 -47 c10 -26 21 -55 24 -64z"/>
<path d="M880 965 l0 -135 25 0 25 0 0 135 0 135 -25 0 -25 0 0 -135z"/>
<path d="M980 965 l0 -135 68 0 c37 0 78 6 92 13 52 26 75 121 46 191 -22 52
-50 66 -133 66 l-73 0 0 -135z m145 81 c13 -10 20 -30 23 -74 5 -75 -15 -102
-78 -102 l-40 0 0 95 0 95 38 0 c21 0 47 -6 57 -14z"/>
<path d="M1240 965 l0 -135 25 0 25 0 0 135 0 135 -25 0 -25 0 0 -135z"/>
<path d="M1340 965 c0 -128 1 -135 20 -135 19 0 20 7 21 108 l1 107 34 -107
c23 -71 40 -108 49 -108 9 0 26 37 49 108 l34 107 1 -107 c1 -101 2 -108 21
-108 19 0 20 7 20 135 l0 135 -35 0 c-32 0 -35 -3 -45 -42 -6 -24 -19 -70 -29
-102 l-17 -60 -16 60 c-9 32 -21 78 -28 102 -10 39 -13 42 -45 42 l-35 0 0
-135z"/>
</g>
</svg>
